<svg width="400" height="200" viewBox="0 0 400 200" xmlns="http://www.w3.org/2000/svg">
  <!-- Panda Face -->
  <circle cx="100" cy="100" r="80" fill="#000000"/>
  <circle cx="70" cy="80" r="20" fill="#ffffff"/>
  <circle cx="130" cy="80" r="20" fill="#ffffff"/>
  <circle cx="75" cy="85" r="8" fill="#000000"/>
  <circle cx="125" cy="85" r="8" fill="#000000"/>
  <path d="M90 110 Q100 130 110 110" stroke="#000000" stroke-width="8" fill="none"/>
  
  <!-- Panda Ears -->
  <circle cx="50" cy="60" r="25" fill="#000000"/>
  <circle cx="150" cy="60" r="25" fill="#000000"/>
  <circle cx="55" cy="65" r="12" fill="#ffffff"/>
  <circle cx="145" cy="65" r="12" fill="#ffffff"/>
  
  <!-- Panda Body -->
  <ellipse cx="250" cy="120" rx="70" ry="50" fill="#000000"/>
  <circle cx="250" cy="70" r="40" fill="#000000"/>
  
  <!-- Panda Arms -->
  <ellipse cx="190" cy="100" rx="20" ry="30" fill="#000000"/>
  <ellipse cx="310" cy="100" rx="20" ry="30" fill="#000000"/>
  
  <!-- Panda Legs -->
  <ellipse cx="220" cy="160" rx="20" ry="25" fill="#000000"/>
  <ellipse cx="280" cy="160" rx="20" ry="25" fill="#000000"/>
  
  <!-- Panda Eyes (Body) -->
  <circle cx="230" cy="60" r="12" fill="#ffffff"/>
  <circle cx="270" cy="60" r="12" fill="#ffffff"/>
  <circle cx="232" cy="62" r="5" fill="#000000"/>
  <circle cx="272" cy="62" r="5" fill="#000000"/>
  
  <!-- PandaMart Text -->
  <text x="200" y="180" text-anchor="middle" font-family="Arial, sans-serif" font-size="24" font-weight="bold" fill="#3b82f6">PandaMart</text>
</svg>